<?xml version="1.0" standalone="no"?>
<!DOCTYPE svg PUBLIC "-//W3C//DTD SVG 20010904//EN"
 "http://www.w3.org/TR/2001/REC-SVG-20010904/DTD/svg10.dtd">
<svg version="1.0" xmlns="http://www.w3.org/2000/svg"
 width="192.000000pt" height="192.000000pt" viewBox="0 0 192.000000 192.000000"
 preserveAspectRatio="xMidYMid meet">

<g transform="translate(0.000000,192.000000) scale(0.100000,-0.100000)" stroke="none">
<path fill="#3c4e91" d="M860 1826 c-219 -49 -410 -170 -533 -336 l-26 -36 184 -117 183 -118
48 51 c163 175 457 176 630 4 30 -31 59 -54 63 -52 30 12 351 225 351 233 -1
18 -95 124 -156 176 -116 99 -246 162 -397 193 -89 19 -267 20 -347 2z"/>
<path fill="#007aff" d="M225 1308 c-91 -200 -92 -486 -1 -692 l25 -56 173 111 c95 62 230
148 300 193 79 50 128 87 128 98 0 10 -95 77 -275 192 -151 96 -286 183 -300
192 l-25 16 -25 -54z"/>
<path fill="#3c4e91" d="M483 587 c-95 -62 -173 -117 -173 -122 0 -6 25 -41 55 -77 101 -122
259 -222 432 -274 77 -23 107 -27 233 -28 123 -1 157 3 224 22 152 44 271 110
375 207 56 52 131 141 131 155 0 8 -343 230 -356 230 -4 0 -33 -25 -65 -55
-85 -81 -167 -117 -283 -123 -76 -3 -102 -1 -155 18 -77 26 -162 80 -199 126
-15 19 -31 34 -37 33 -5 0 -88 -51 -182 -112z"/>
</g>
</svg>
